<?xml version="1.0" encoding="UTF-8" standalone="no"?>
<!-- Created with Inkscape (http://www.inkscape.org/) -->

<svg
   xmlns:dc="http://purl.org/dc/elements/1.1/"
   xmlns:cc="http://creativecommons.org/ns#"
   xmlns:rdf="http://www.w3.org/1999/02/22-rdf-syntax-ns#"
   xmlns:svg="http://www.w3.org/2000/svg"
   xmlns="http://www.w3.org/2000/svg"
   xmlns:xlink="http://www.w3.org/1999/xlink"
   xmlns:sodipodi="http://sodipodi.sourceforge.net/DTD/sodipodi-0.dtd"
   xmlns:inkscape="http://www.inkscape.org/namespaces/inkscape"
   width="72.329559"
   height="73.840164"
   viewBox="0 0 67.808961 69.225155"
   id="svg8202"
   version="1.1"
   inkscape:version="0.92.4 (5da689c313, 2019-01-14)"
   sodipodi:docname="rope.svg">
  <defs
     id="defs8204" />
  <sodipodi:namedview
     id="base"
     pagecolor="#ffffff"
     bordercolor="#666666"
     borderopacity="1.0"
     inkscape:pageopacity="0.0"
     inkscape:pageshadow="2"
     inkscape:zoom="5.6568542"
     inkscape:cx="53.325046"
     inkscape:cy="35.631313"
     inkscape:document-units="px"
     inkscape:current-layer="layer1"
     showgrid="false"
     fit-margin-top="0"
     fit-margin-left="0"
     fit-margin-right="0"
     fit-margin-bottom="0"
     inkscape:window-width="1850"
     inkscape:window-height="1016"
     inkscape:window-x="70"
     inkscape:window-y="27"
     inkscape:window-maximized="1"
     showguides="true"
     inkscape:guide-bbox="true"
     units="px" />
  <metadata
     id="metadata8207">
    <rdf:RDF>
      <cc:Work
         rdf:about="">
        <dc:format>image/svg+xml</dc:format>
        <dc:type
           rdf:resource="http://purl.org/dc/dcmitype/StillImage" />
        <dc:title></dc:title>
      </cc:Work>
    </rdf:RDF>
  </metadata>
  <g
     inkscape:label="Layer 1"
     inkscape:groupmode="layer"
     id="layer1"
     transform="translate(-301.70032,-1027.2167)">
    <use
       x="0"
       y="0"
       xlink:href="#g7368"
       id="use8241"
       transform="matrix(1.7371009,0,0,1.7372942,-2880.1295,90.931082)"
       width="100%"
       height="100%"
       style="stroke-width:1.19078219" />
    <use
       x="0"
       y="0"
       xlink:href="#g7368"
       id="use8241-6"
       transform="matrix(1.7371009,0,0,1.7372942,-2933.873,64.166904)"
       width="100%"
       height="100%"
       style="color:#000000;clip-rule:nonzero;display:inline;overflow:visible;visibility:visible;opacity:1;isolation:auto;mix-blend-mode:normal;color-interpolation:sRGB;color-interpolation-filters:linearRGB;solid-color:#000000;solid-opacity:1;fill:#000000;fill-opacity:1;fill-rule:nonzero;stroke-width:1.19078219;stroke-linecap:butt;stroke-linejoin:miter;stroke-miterlimit:4;stroke-dasharray:none;stroke-dashoffset:0;stroke-opacity:1;color-rendering:auto;image-rendering:auto;shape-rendering:auto;text-rendering:auto;enable-background:accumulate" />
    <use
       x="0"
       y="0"
       xlink:href="#g7368"
       id="use8241-5"
       transform="matrix(1.7371009,0,0,1.7372942,-2933.873,64.166904)"
       width="100%"
       height="100%"
       style="stroke-width:1.19078219" />
    <rect
       y="1034.884"
       x="302.88181"
       height="54.876465"
       width="65.445984"
       id="rect12983"
       style="fill:#e6c099;fill-opacity:1;stroke:#2b1100;stroke-width:2.36297917;stroke-miterlimit:1.60000002;stroke-dasharray:none;stroke-dashoffset:0;stroke-opacity:1" />
    <path
       sodipodi:nodetypes="ccccc"
       inkscape:connector-curvature="0"
       id="path12987"
       d="m 306.62902,1072.2069 c 2.82904,-3.2704 6.18099,-3.9315 11.41447,-2.9907 1.78666,4.6108 3.37616,9.2732 3.925,14.2084 -4.14183,3.8498 -5.83903,4.2263 -11.4145,2.9908 -2.13921,-6.0431 -3.02846,-9.4796 -3.92497,-14.2085 z"
       style="fill:#e6c099;fill-opacity:1;stroke:#2b1100;stroke-width:1.11749995;stroke-miterlimit:1.39999998;stroke-dasharray:1.11749992, 1.11749992;stroke-dashoffset:0;stroke-opacity:1" />
    <rect
       y="1090.8473"
       x="308.66461"
       height="4.3113003"
       width="6.4726691"
       id="rect12997"
       style="fill:#28170b;fill-opacity:1;stroke:#2b1100;stroke-width:2.04307222;stroke-miterlimit:1.60000002;stroke-dasharray:none;stroke-dashoffset:0;stroke-opacity:1" />
    <rect
       y="1091.4883"
       x="353.0303"
       height="4.0656958"
       width="7.4490986"
       id="rect12999"
       style="fill:#28170b;fill-opacity:1;stroke:#2b1100;stroke-width:1.77581477;stroke-miterlimit:1.60000002;stroke-dasharray:none;stroke-dashoffset:0;stroke-opacity:1" />
    <g
       transform="matrix(1.3684704,0,0,1.3686226,-507.61215,2497.7797)"
       id="g13013"
       style="stroke:#2b1100;stroke-width:1.19078219" />
    <g
       id="g11029"
       transform="matrix(0.83973748,0,0,0.83983088,53.117853,196.82517)"
       style="stroke-width:1.19078219">
      <rect
         style="fill:#94e627;fill-opacity:1;stroke:#2b1100;stroke-width:2.50436473;stroke-miterlimit:1.60000002;stroke-dasharray:none;stroke-dashoffset:0;stroke-opacity:1"
         id="rect12995"
         width="28.021049"
         height="5.9925885"
         x="321.04523"
         y="990.01263" />
      <rect
         y="992.91461"
         x="327.64127"
         height="3.6027279"
         width="14.940888"
         id="rect13019"
         style="fill:#2777e6;fill-opacity:1;stroke:#2b1100;stroke-width:1.41792119;stroke-miterlimit:1.60000002;stroke-dasharray:none;stroke-dashoffset:0;stroke-opacity:1" />
      <rect
         style="fill:#fdff67;fill-opacity:1;stroke:#2b1100;stroke-width:1.11594284;stroke-miterlimit:1.60000002;stroke-dasharray:none;stroke-dashoffset:0;stroke-opacity:1"
         id="rect13021"
         width="8.645977"
         height="3.8563247"
         x="310.92511"
         y="992.7879" />
      <rect
         y="992.7879"
         x="350.0365"
         height="3.8563247"
         width="8.645977"
         id="rect13023"
         style="fill:#fe6d5b;fill-opacity:1;stroke:#2b1100;stroke-width:1.11594284;stroke-miterlimit:1.60000002;stroke-dasharray:none;stroke-dashoffset:0;stroke-opacity:1" />
    </g>
    <path
       style="fill:#e6c099;fill-opacity:1;stroke:#2b1100;stroke-width:1.11749995;stroke-miterlimit:1.39999998;stroke-dasharray:1.11749992, 1.11749992;stroke-dashoffset:0;stroke-opacity:1"
       d="m 363.97061,1072.2069 c -2.82903,-3.2704 -6.18098,-3.9315 -11.41446,-2.9907 -1.78667,4.6108 -3.37617,9.2732 -3.925,14.2084 4.14183,3.8498 5.83903,4.2263 11.4145,2.9908 2.1392,-6.0431 3.02845,-9.4796 3.92496,-14.2085 z"
       id="path10920"
       inkscape:connector-curvature="0"
       sodipodi:nodetypes="ccccc" />
    <path
       sodipodi:nodetypes="ccccc"
       inkscape:connector-curvature="0"
       id="path10941"
       d="m 346.39357,1071.6823 c -8.39633,-2.1902 -14.8334,-2.0661 -22.02221,0.034 2.70302,7.8986 4.22198,10.0918 5.91796,12.8128 3.32137,1.5303 7.02399,1.4329 10.5713,-0.1045 1.70634,-2.6165 3.23628,-5.8294 5.53295,-12.743 z"
       style="fill:#e6c099;fill-opacity:1;stroke:#2b1100;stroke-width:1.11749995;stroke-miterlimit:1.39999998;stroke-dasharray:none;stroke-dashoffset:0;stroke-opacity:1" />
    <path
       style="fill:#ffffff;fill-opacity:0.64563108;stroke:#2b1100;stroke-width:1.40625;stroke-miterlimit:1.60000002;stroke-dasharray:none;stroke-dashoffset:0;stroke-opacity:1"
       d="m 311.04969,1041.141 c 25.10018,-2.5544 24.58886,-2.7551 49.88747,0.2651 l -0.0989,22.2158 c -23.83979,3.6811 -27.92165,3.1327 -50.09077,0.8178 z"
       id="path11352"
       inkscape:connector-curvature="0"
       sodipodi:nodetypes="ccccc" />
    <path
       style="fill:#2777e6;fill-opacity:1;stroke:#000000;stroke-width:1.87499988;stroke-linecap:round;stroke-linejoin:miter;stroke-miterlimit:1.60000002;stroke-dasharray:none;stroke-dashoffset:0;paint-order:markers fill stroke"
       d="m 315.7552,1061.1136 c -0.20576,-3.0365 0.16082,-6.1848 1.02489,-8.8015 0.94467,-2.8606 2.55539,-5.2338 4.36444,-6.4304 1.16771,-0.7723 1.96967,-1.0268 3.23526,-1.0268 1.32802,0 2.1424,0.2769 3.40126,1.1564 1.92948,1.3483 3.53422,3.9201 4.43705,7.1111 0.4843,1.7119 0.75829,3.4975 0.8359,5.4476 0.0358,0.9 -0.0295,2.7193 -0.026,2.8383 -0.72898,0.077 -1.19309,0.1172 -1.89175,0.1594 -0.0355,-1.3881 -0.0361,-2.9923 -0.22988,-4.1786 -0.71265,-4.2948 -2.69543,-7.3624 -5.31876,-8.2287 -0.69423,-0.2293 -1.84161,-0.2152 -2.56043,0.031 -2.27795,0.7816 -4.14409,3.3593 -4.96653,6.8603 -0.51009,2.3896 -0.45167,3.5447 -0.45167,5.8488 l -0.90026,10e-5 h -0.90023 z"
       id="path11043"
       inkscape:connector-curvature="0"
       sodipodi:nodetypes="cccsccscccccccccc" />
    <path
       sodipodi:nodetypes="cccsccsccccccccc"
       inkscape:connector-curvature="0"
       id="path11045"
       d="m 336.36014,1060.4573 c -0.10173,-3.0418 0.37702,-6.1752 1.3385,-8.7604 1.05114,-2.826 2.75636,-5.1416 4.62049,-6.2742 1.20327,-0.7313 2.02005,-0.9578 3.29507,-0.9136 1.33792,0.046 2.14873,0.3514 3.38641,1.2743 1.89701,1.4147 3.42429,4.0408 4.22294,7.2616 0.42839,1.7276 0.64237,3.5216 0.65276,5.4733 0.004,0.9008 -0.11574,2.6735 -0.12238,2.8483 -0.69204,0.048 -1.22263,0.064 -1.91379,0.082 0.0125,-1.3884 0.0677,-2.9917 -0.0863,-4.1839 -0.56865,-4.317 -2.94945,-7.3123 -5.56221,-8.2696 -3.83498,-0.9002 -6.56169,3.8073 -7.33279,6.4853 -0.59695,2.3704 -0.57826,3.5269 -0.65834,5.8295 l -0.90698,-0.031 -0.90694,-0.031 z"
       style="fill:#2777e6;fill-opacity:1;stroke:#000000;stroke-width:1.87499988;stroke-linecap:round;stroke-linejoin:miter;stroke-miterlimit:1.60000002;stroke-dasharray:none;stroke-dashoffset:0;paint-order:markers fill stroke" />
    <use
       x="0"
       y="0"
       xlink:href="#g7368"
       id="use8241-62"
       transform="matrix(1.7371009,0,0,1.7372942,-2792.9721,111.49303)"
       width="100%"
       height="100%"
       style="stroke-width:1.19078219" />
    <use
       x="0"
       y="0"
       xlink:href="#g7368"
       id="use8241-6-9"
       transform="matrix(1.7371009,0,0,1.7372942,-2846.7156,84.728861)"
       width="100%"
       height="100%"
       style="color:#000000;clip-rule:nonzero;display:inline;overflow:visible;visibility:visible;opacity:1;isolation:auto;mix-blend-mode:normal;color-interpolation:sRGB;color-interpolation-filters:linearRGB;solid-color:#000000;solid-opacity:1;fill:#000000;fill-opacity:1;fill-rule:nonzero;stroke-width:1.19078219;stroke-linecap:butt;stroke-linejoin:miter;stroke-miterlimit:4;stroke-dasharray:none;stroke-dashoffset:0;stroke-opacity:1;color-rendering:auto;image-rendering:auto;shape-rendering:auto;text-rendering:auto;enable-background:accumulate" />
    <use
       x="0"
       y="0"
       xlink:href="#g7368"
       id="use8241-5-1"
       transform="matrix(1.7371009,0,0,1.7372942,-2846.7156,84.728861)"
       width="100%"
       height="100%"
       style="stroke-width:1.19078219" />
  </g>
</svg>
