<?xml version="1.0" encoding="UTF-8" standalone="no"?>
<svg
   xmlns:dc="http://purl.org/dc/elements/1.1/"
   xmlns:cc="http://creativecommons.org/ns#"
   xmlns:rdf="http://www.w3.org/1999/02/22-rdf-syntax-ns#"
   xmlns:svg="http://www.w3.org/2000/svg"
   xmlns="http://www.w3.org/2000/svg"
   xmlns:xlink="http://www.w3.org/1999/xlink"
   xmlns:sodipodi="http://sodipodi.sourceforge.net/DTD/sodipodi-0.dtd"
   xmlns:inkscape="http://www.inkscape.org/namespaces/inkscape"
   version="1.1"
   id="svg8202"
   viewBox="0 0 116.85767 135.07482"
   height="144.0798"
   width="124.64818"
   sodipodi:docname="rope.svg"
   inkscape:version="0.92.4 (5da689c313, 2019-01-14)">
  <sodipodi:namedview
     pagecolor="#ffffff"
     bordercolor="#666666"
     borderopacity="1"
     objecttolerance="10"
     gridtolerance="10"
     guidetolerance="10"
     inkscape:pageopacity="0"
     inkscape:pageshadow="2"
     inkscape:window-width="1920"
     inkscape:window-height="1016"
     id="namedview840"
     showgrid="false"
     inkscape:zoom="4.0890293"
     inkscape:cx="19.98504"
     inkscape:cy="51.008451"
     inkscape:window-x="0"
     inkscape:window-y="27"
     inkscape:window-maximized="1"
     inkscape:current-layer="svg8202"
     fit-margin-top="0"
     fit-margin-left="0"
     fit-margin-right="0"
     fit-margin-bottom="0" />
  <defs
     id="defs8204" />
  <metadata
     id="metadata8207">
    <rdf:RDF>
      <cc:Work
         rdf:about="">
        <dc:format>image/svg+xml</dc:format>
        <dc:type
           rdf:resource="http://purl.org/dc/dcmitype/StillImage" />
        <dc:title></dc:title>
      </cc:Work>
    </rdf:RDF>
  </metadata>
  <path
     style="fill:none;stroke:#e3dedb;stroke-width:0.93750006px;stroke-linecap:butt;stroke-linejoin:miter;stroke-opacity:1"
     d="M -51.356933,125.48622 H 121.97272"
     id="path2011"
     inkscape:connector-curvature="0" />
  <use
     x="0"
     y="0"
     xlink:href="#g7368"
     id="use8241"
     transform="matrix(1.7371009,0,0,1.7372942,-3181.8298,-870.36781)"
     width="100%"
     height="100%"
     style="stroke-width:1.19078219" />
  <use
     x="0"
     y="0"
     xlink:href="#g7368"
     id="use8241-6"
     transform="matrix(1.7371009,0,0,1.7372942,-3235.5733,-897.13199)"
     width="100%"
     height="100%"
     style="color:#000000;clip-rule:nonzero;display:inline;overflow:visible;visibility:visible;opacity:1;isolation:auto;mix-blend-mode:normal;color-interpolation:sRGB;color-interpolation-filters:linearRGB;solid-color:#000000;solid-opacity:1;fill:#000000;fill-opacity:1;fill-rule:nonzero;stroke-width:1.19078219;stroke-linecap:butt;stroke-linejoin:miter;stroke-miterlimit:4;stroke-dasharray:none;stroke-dashoffset:0;stroke-opacity:1;color-rendering:auto;image-rendering:auto;shape-rendering:auto;text-rendering:auto;enable-background:accumulate" />
  <use
     x="0"
     y="0"
     xlink:href="#g7368"
     id="use8241-5"
     transform="matrix(1.7371009,0,0,1.7372942,-3235.5733,-897.13199)"
     width="100%"
     height="100%"
     style="stroke-width:1.19078219" />
  <g
     transform="matrix(1.3684704,0,0,1.3686226,-809.31247,1536.4808)"
     id="g13013"
     style="stroke:#2b1100;stroke-width:1.19078219" />
  <use
     x="0"
     y="0"
     xlink:href="#g7368"
     id="use8241-62"
     transform="matrix(1.7371009,0,0,1.7372942,-3094.6724,-849.80586)"
     width="100%"
     height="100%"
     style="stroke-width:1.19078219" />
  <use
     x="0"
     y="0"
     xlink:href="#g7368"
     id="use8241-6-9"
     transform="matrix(1.7371009,0,0,1.7372942,-3148.4159,-876.57003)"
     width="100%"
     height="100%"
     style="color:#000000;clip-rule:nonzero;display:inline;overflow:visible;visibility:visible;opacity:1;isolation:auto;mix-blend-mode:normal;color-interpolation:sRGB;color-interpolation-filters:linearRGB;solid-color:#000000;solid-opacity:1;fill:#000000;fill-opacity:1;fill-rule:nonzero;stroke-width:1.19078219;stroke-linecap:butt;stroke-linejoin:miter;stroke-miterlimit:4;stroke-dasharray:none;stroke-dashoffset:0;stroke-opacity:1;color-rendering:auto;image-rendering:auto;shape-rendering:auto;text-rendering:auto;enable-background:accumulate" />
  <use
     x="0"
     y="0"
     xlink:href="#g7368"
     id="use8241-5-1"
     transform="matrix(1.7371009,0,0,1.7372942,-3148.4159,-876.57003)"
     width="100%"
     height="100%"
     style="stroke-width:1.19078219" />
  <use
     x="0"
     y="0"
     xlink:href="#g7368"
     id="use8241-3"
     transform="matrix(2.0686238,0,0,2.0686238,-3880.136,-1096.9559)"
     width="100%"
     height="100%" />
  <use
     x="0"
     y="0"
     xlink:href="#g7368"
     id="use8241-6-5"
     transform="matrix(2.0686238,0,0,2.0686238,-3944.1364,-1128.8244)"
     width="100%"
     height="100%"
     style="color:#000000;clip-rule:nonzero;display:inline;overflow:visible;visibility:visible;opacity:1;isolation:auto;mix-blend-mode:normal;color-interpolation:sRGB;color-interpolation-filters:linearRGB;solid-color:#000000;solid-opacity:1;fill:#000000;fill-opacity:1;fill-rule:nonzero;stroke-width:1;stroke-linecap:butt;stroke-linejoin:miter;stroke-miterlimit:4;stroke-dasharray:none;stroke-dashoffset:0;stroke-opacity:1;color-rendering:auto;image-rendering:auto;shape-rendering:auto;text-rendering:auto;enable-background:accumulate" />
  <use
     x="0"
     y="0"
     xlink:href="#g7368"
     id="use8241-5-6"
     transform="matrix(2.0686238,0,0,2.0686238,-3944.1364,-1128.8244)"
     width="100%"
     height="100%" />
  <use
     x="0"
     y="0"
     xlink:href="#g7368"
     id="use8241-56"
     transform="matrix(2.0686238,0,0,2.0686238,-3769.8529,-1123.7095)"
     width="100%"
     height="100%" />
  <use
     x="0"
     y="0"
     xlink:href="#g7368"
     id="use8241-6-2"
     transform="matrix(2.0686238,0,0,2.0686238,-3833.8533,-1155.5781)"
     width="100%"
     height="100%"
     style="color:#000000;clip-rule:nonzero;display:inline;overflow:visible;visibility:visible;opacity:1;isolation:auto;mix-blend-mode:normal;color-interpolation:sRGB;color-interpolation-filters:linearRGB;solid-color:#000000;solid-opacity:1;fill:#000000;fill-opacity:1;fill-rule:nonzero;stroke-width:1;stroke-linecap:butt;stroke-linejoin:miter;stroke-miterlimit:4;stroke-dasharray:none;stroke-dashoffset:0;stroke-opacity:1;color-rendering:auto;image-rendering:auto;shape-rendering:auto;text-rendering:auto;enable-background:accumulate" />
  <use
     x="0"
     y="0"
     xlink:href="#g7368"
     id="use8241-5-9"
     transform="matrix(2.0686238,0,0,2.0686238,-3833.8533,-1155.5781)"
     width="100%"
     height="100%" />
  <g
     id="rope">
    <rect
       style="fill:#e6c099;fill-opacity:1;stroke:#2b1100;stroke-width:2.36297917;stroke-miterlimit:1.60000002;stroke-dasharray:none;stroke-dashoffset:0;stroke-opacity:1"
       id="rect12983"
       width="65.445984"
       height="54.876465"
       x="1.1814854"
       y="73.585144" />
    <path
       style="fill:#e6c099;fill-opacity:1;stroke:#2b1100;stroke-width:1.11749995;stroke-miterlimit:1.39999998;stroke-dasharray:1.11749992, 1.11749992;stroke-dashoffset:0;stroke-opacity:1"
       d="m 4.9287,110.90801 c 2.82904,-3.2704 6.18099,-3.9315 11.41447,-2.9907 1.78666,4.6108 3.37616,9.2732 3.925,14.2084 -4.14183,3.8498 -5.83903,4.2263 -11.4145,2.9908 -2.13921,-6.0431 -3.02846,-9.4796 -3.92497,-14.2085 z"
       id="path12987"
       inkscape:connector-curvature="0" />
    <rect
       style="fill:#28170b;fill-opacity:1;stroke:#2b1100;stroke-width:1.68133879;stroke-miterlimit:1.60000002;stroke-dasharray:none;stroke-dashoffset:0;stroke-opacity:1"
       id="rect12997"
       width="6.6468925"
       height="2.8432567"
       x="6.8771949"
       y="129.79596" />
    <g
       style="stroke-width:1.19078219"
       transform="matrix(0.83973748,0,0,0.83983088,-248.58247,-764.47372)"
       id="g11029">
      <rect
         y="990.01263"
         x="321.04523"
         height="5.9925885"
         width="28.021049"
         id="rect12995"
         style="fill:#94e627;fill-opacity:1;stroke:#2b1100;stroke-width:2.50436473;stroke-miterlimit:1.60000002;stroke-dasharray:none;stroke-dashoffset:0;stroke-opacity:1" />
      <rect
         style="fill:#2777e6;fill-opacity:1;stroke:#2b1100;stroke-width:1.41792119;stroke-miterlimit:1.60000002;stroke-dasharray:none;stroke-dashoffset:0;stroke-opacity:1"
         id="rect13019"
         width="14.940888"
         height="3.6027279"
         x="327.64127"
         y="992.91461" />
      <rect
         y="992.7879"
         x="310.92511"
         height="3.8563247"
         width="8.645977"
         id="rect13021"
         style="fill:#fdff67;fill-opacity:1;stroke:#2b1100;stroke-width:1.11594284;stroke-miterlimit:1.60000002;stroke-dasharray:none;stroke-dashoffset:0;stroke-opacity:1" />
      <rect
         style="fill:#fe6d5b;fill-opacity:1;stroke:#2b1100;stroke-width:1.11594284;stroke-miterlimit:1.60000002;stroke-dasharray:none;stroke-dashoffset:0;stroke-opacity:1"
         id="rect13023"
         width="8.645977"
         height="3.8563247"
         x="350.0365"
         y="992.7879" />
    </g>
    <path
       id="path10920"
       d="m 62.27029,110.90801 c -2.82903,-3.2704 -6.18098,-3.9315 -11.41446,-2.9907 -1.78667,4.6108 -3.37617,9.2732 -3.925,14.2084 4.14183,3.8498 5.83903,4.2263 11.4145,2.9908 2.1392,-6.0431 3.02845,-9.4796 3.92496,-14.2085 z"
       style="fill:#e6c099;fill-opacity:1;stroke:#2b1100;stroke-width:1.11749995;stroke-miterlimit:1.39999998;stroke-dasharray:1.11749992, 1.11749992;stroke-dashoffset:0;stroke-opacity:1"
       inkscape:connector-curvature="0" />
    <path
       style="fill:#916f6f;fill-opacity:1;stroke:#2b1100;stroke-width:1.11749995;stroke-miterlimit:1.39999998;stroke-dasharray:none;stroke-dashoffset:0;stroke-opacity:1"
       d="m 37.23773,113.95751 c -2.71067,-0.4921 -4.79113,-0.4642 -7.11198,0.01 0.87265,1.7749 1.36534,2.2676 1.91288,2.8791 1.07227,0.3438 2.26763,0.322 3.41284,-0.023 0.96569,-1.1073 1.44998,-2.0273 1.78626,-2.8632 z"
       id="mouth"
       inkscape:connector-curvature="0"
       sodipodi:nodetypes="ccccc" />
    <use
       x="0"
       y="0"
       xlink:href="#rect12997"
       id="use842"
       transform="translate(46.63182)"
       width="100%"
       height="100%" />
    <path
       sodipodi:nodetypes="ccccc"
       inkscape:connector-curvature="0"
       id="shadow"
       d="m 10.97027,130.88479 47.125469,-0.0735 9.463733,4.26238 H 0.34771891 Z"
       style="color:#000000;clip-rule:nonzero;display:inline;overflow:visible;visibility:visible;opacity:1;isolation:auto;mix-blend-mode:normal;color-interpolation:sRGB;color-interpolation-filters:linearRGB;solid-color:#000000;solid-opacity:1;fill:#1d232c;fill-opacity:0.32000002;fill-rule:nonzero;stroke:#2b1100;stroke-width:0.00223336;stroke-linecap:butt;stroke-linejoin:miter;stroke-miterlimit:12.19999981;stroke-dasharray:none;stroke-dashoffset:0;stroke-opacity:1;color-rendering:auto;image-rendering:auto;shape-rendering:auto;text-rendering:auto;enable-background:accumulate" />
    <g
       id="eyeFace">
      <g
         id="g1819"
         transform="translate(-0.45854451,-0.1224717)">
        <path
           inkscape:connector-curvature="0"
           style="fill:#ffffff;fill-opacity:0.64563108;stroke:#2b1100;stroke-width:1.40625;stroke-miterlimit:1.60000002;stroke-dasharray:none;stroke-dashoffset:0;stroke-opacity:1"
           d="m 311.04969,1041.141 c 25.10018,-2.5544 24.58886,-2.7551 49.88747,0.2651 l -0.0989,22.2158 c -23.83979,3.6811 -27.92165,3.1327 -50.09077,0.8178 z"
           id="path11352"
           transform="translate(-301.70032,-961.29893)" />
        <g
           id="eyebrows">
          <path
             style="fill:none;stroke:#000000;stroke-width:0.9375px;stroke-linecap:butt;stroke-linejoin:miter;stroke-opacity:1"
             d="m 12.240049,85.291126 9.808248,-2.512857"
             id="path1460"
             inkscape:connector-curvature="0" />
          <path
             style="fill:none;stroke:#000000;stroke-width:0.9375px;stroke-linecap:butt;stroke-linejoin:miter;stroke-opacity:1"
             d="m 42.475391,81.64343 9.402948,2.269677"
             id="path1464"
             inkscape:connector-curvature="0" />
        </g>
      </g>
      <g
         id="eyes"
         transform="translate(-301.70032,-961.29889)">
        <path
           id="eyeright"
           d="m 315.7552,1055.6302 c -0.20576,0.8539 0.16082,1.7392 1.02489,2.4751 0.94467,0.8044 2.55539,1.4718 4.36444,1.8082 1.16771,0.2172 1.96967,0.2888 3.23526,0.2888 1.32802,0 2.1424,-0.078 3.40126,-0.3252 1.92948,-0.3791 3.53422,-1.1024 4.43705,-1.9997 0.4843,-0.4814 0.75829,-0.9835 0.8359,-1.5319 0.0358,-0.2531 -0.0295,-0.7647 -0.026,-0.7982 -0.72898,-0.022 -1.19309,-0.033 -1.89175,-0.045 -0.0355,0.3903 -0.0361,0.8414 -0.22988,1.175 -0.71265,1.2078 -2.69543,2.0704 -5.31876,2.314 -0.69423,0.064 -1.84161,0.061 -2.56043,-0.01 -2.27795,-0.2198 -4.14409,-0.9447 -4.96653,-1.9292 -0.51009,-0.6719 -0.45167,-0.9968 -0.45167,-1.6447 l -0.90026,-10e-5 h -0.90023 z"
           style="fill:#2777e6;fill-opacity:1;stroke:#000000;stroke-width:0.9942987;stroke-linecap:round;stroke-linejoin:miter;stroke-miterlimit:1.60000002;stroke-dasharray:none;stroke-dashoffset:0;paint-order:markers fill stroke"
           inkscape:connector-curvature="0" />
        <path
           style="fill:#2777e6;fill-opacity:1;stroke:#000000;stroke-width:0.9942987;stroke-linecap:round;stroke-linejoin:miter;stroke-miterlimit:1.60000002;stroke-dasharray:none;stroke-dashoffset:0;paint-order:markers fill stroke"
           d="m 336.36014,1055.8147 c -0.10173,0.8554 0.37702,1.7366 1.3385,2.4636 1.05114,0.7946 2.75636,1.4458 4.62049,1.7643 1.20327,0.2057 2.02005,0.2694 3.29507,0.2569 1.33792,-0.013 2.14873,-0.099 3.38641,-0.3583 1.89701,-0.3978 3.42429,-1.1363 4.22294,-2.042 0.42839,-0.4859 0.64237,-0.9904 0.65276,-1.5392 0.004,-0.2533 -0.11574,-0.7518 -0.12238,-0.801 -0.69204,-0.014 -1.22263,-0.018 -1.91379,-0.023 0.0125,0.3904 0.0677,0.8412 -0.0863,1.1765 -0.56865,1.214 -2.94945,2.0563 -5.56221,2.3255 -3.83498,0.2532 -6.56169,-1.0706 -7.33279,-1.8237 -0.59695,-0.6666 -0.57826,-0.9918 -0.65834,-1.6393 l -0.90698,0.01 -0.90694,0.01 z"
           id="eyeleft"
           inkscape:connector-curvature="0" />
      </g>
    </g>
  </g>
  <g
     style="fill:#916f6f;fill-opacity:1;stroke:#2b1100;stroke-width:4.39631033;stroke-miterlimit:4;stroke-dasharray:none;stroke-opacity:1"
     id="g2356"
     transform="matrix(-0.06526264,0.21797422,-0.21797422,-0.06526264,101.12087,-10.059415)">
	<g
   style="fill:#916f6f;fill-opacity:1;stroke:#2b1100;stroke-width:4.39631033;stroke-miterlimit:4;stroke-dasharray:none;stroke-opacity:1"
   id="g2354">
		
	</g>

</g>
  <g
     style="fill:#916f6f;fill-opacity:1;stroke:#2b1100;stroke-width:4.39631033;stroke-miterlimit:4;stroke-dasharray:none;stroke-opacity:1"
     id="g2398"
     transform="matrix(-0.06526264,0.21797422,-0.21797422,-0.06526264,101.12087,-10.059415)">
	<g
   style="fill:#916f6f;fill-opacity:1;stroke:#2b1100;stroke-width:4.39631033;stroke-miterlimit:4;stroke-dasharray:none;stroke-opacity:1"
   id="g2396">
		
	</g>

</g>
  <g
     style="fill:#916f6f;fill-opacity:1;stroke:#2b1100;stroke-width:4.39631033;stroke-miterlimit:4;stroke-dasharray:none;stroke-opacity:1"
     id="g2410"
     transform="matrix(-0.06526264,0.21797422,-0.21797422,-0.06526264,101.12087,-10.059415)">
	<g
   style="fill:#916f6f;fill-opacity:1;stroke:#2b1100;stroke-width:4.39631033;stroke-miterlimit:4;stroke-dasharray:none;stroke-opacity:1"
   id="g2408">
		
	</g>

</g>
  <g
     style="fill:#916f6f;fill-opacity:1;stroke:#2b1100;stroke-width:4.39631033;stroke-miterlimit:4;stroke-dasharray:none;stroke-opacity:1"
     id="g2422"
     transform="matrix(-0.06526264,0.21797422,-0.21797422,-0.06526264,101.12087,-10.059415)">
	<g
   style="fill:#916f6f;fill-opacity:1;stroke:#2b1100;stroke-width:4.39631033;stroke-miterlimit:4;stroke-dasharray:none;stroke-opacity:1"
   id="g2420">
		
	</g>

</g>
  <g
     style="stroke-width:6.8121233"
     id="g2424"
     transform="matrix(0.13762229,0,0,0.13762229,-118.88365,70.817142)">
</g>
  <g
     style="stroke-width:6.8121233"
     id="g2426"
     transform="matrix(0.13762229,0,0,0.13762229,-118.88365,70.817142)">
</g>
  <g
     style="stroke-width:6.8121233"
     id="g2428"
     transform="matrix(0.13762229,0,0,0.13762229,-118.88365,70.817142)">
</g>
  <g
     style="stroke-width:6.8121233"
     id="g2430"
     transform="matrix(0.13762229,0,0,0.13762229,-118.88365,70.817142)">
</g>
  <g
     style="stroke-width:6.8121233"
     id="g2432"
     transform="matrix(0.13762229,0,0,0.13762229,-118.88365,70.817142)">
</g>
  <g
     style="stroke-width:6.8121233"
     id="g2434"
     transform="matrix(0.13762229,0,0,0.13762229,-118.88365,70.817142)">
</g>
  <g
     style="stroke-width:6.8121233"
     id="g2436"
     transform="matrix(0.13762229,0,0,0.13762229,-118.88365,70.817142)">
</g>
  <g
     style="stroke-width:6.8121233"
     id="g2438"
     transform="matrix(0.13762229,0,0,0.13762229,-118.88365,70.817142)">
</g>
  <g
     style="stroke-width:6.8121233"
     id="g2440"
     transform="matrix(0.13762229,0,0,0.13762229,-118.88365,70.817142)">
</g>
  <g
     style="stroke-width:6.8121233"
     id="g2442"
     transform="matrix(0.13762229,0,0,0.13762229,-118.88365,70.817142)">
</g>
  <g
     style="stroke-width:6.8121233"
     id="g2444"
     transform="matrix(0.13762229,0,0,0.13762229,-118.88365,70.817142)">
</g>
  <g
     style="stroke-width:6.8121233"
     id="g2446"
     transform="matrix(0.13762229,0,0,0.13762229,-118.88365,70.817142)">
</g>
  <g
     style="stroke-width:6.8121233"
     id="g2448"
     transform="matrix(0.13762229,0,0,0.13762229,-118.88365,70.817142)">
</g>
  <g
     style="stroke-width:6.8121233"
     id="g2450"
     transform="matrix(0.13762229,0,0,0.13762229,-118.88365,70.817142)">
</g>
  <g
     style="stroke-width:6.8121233"
     id="g2452"
     transform="matrix(0.13762229,0,0,0.13762229,-118.88365,70.817142)">
</g>
  <g
     id="connectingSignal"
     inkscape:label="#connectingSignal"
     transform="matrix(1.284595,0,0,1.286671,-10.344103,-27.760194)"
     style="stroke-width:0.7778272">
    <g
       transform="matrix(-0.06526264,0.21797422,-0.21797422,-0.06526264,101.12087,-10.059415)"
       id="g2392"
       style="fill:#916f6f;fill-opacity:1;stroke:#2b1100;stroke-width:3.41956973;stroke-miterlimit:4;stroke-dasharray:none;stroke-opacity:1">
	<g
   id="g2390"
   style="fill:#916f6f;fill-opacity:1;stroke:#2b1100;stroke-width:3.41956973;stroke-miterlimit:4;stroke-dasharray:none;stroke-opacity:1">
		<path
   id="cs2"
   d="m 341.333,162.573 c 0,-8.555 3.328,-16.576 9.365,-22.635 4.16,-4.16 4.16,-10.923 0,-15.083 -4.16,-4.16 -10.923,-4.16 -15.083,0 -10.068,10.07 -15.615,23.468 -15.615,37.718 0,14.251 5.547,27.648 15.616,37.717 2.091,2.069 4.821,3.115 7.552,3.115 2.731,0 5.461,-1.024 7.531,-3.115 4.16,-4.16 4.16,-10.923 0,-15.083 -6.038,-6.058 -9.366,-14.079 -9.366,-22.634 z"
   inkscape:connector-curvature="0"
   style="fill:#916f6f;fill-opacity:1;stroke:#2b1100;stroke-width:3.41956973;stroke-miterlimit:4;stroke-dasharray:none;stroke-opacity:1" />

	</g>

</g>
    <g
       transform="matrix(-0.06526264,0.21797422,-0.21797422,-0.06526264,101.12087,-10.059415)"
       id="g2404"
       style="fill:#916f6f;fill-opacity:1;stroke:#2b1100;stroke-width:3.41956973;stroke-miterlimit:4;stroke-dasharray:none;stroke-opacity:1">
	<g
   id="g2402"
   style="fill:#916f6f;fill-opacity:1;stroke:#2b1100;stroke-width:3.41956973;stroke-miterlimit:4;stroke-dasharray:none;stroke-opacity:1">
		<path
   id="cs3"
   d="m 320.512,109.795 c 4.16,-4.16 4.16,-10.923 0,-15.083 -4.16,-4.16 -10.923,-4.16 -15.083,0 -37.419,37.44 -37.419,98.325 0,135.765 2.091,2.069 4.821,3.115 7.552,3.115 2.731,0 5.461,-1.045 7.531,-3.115 4.16,-4.16 4.16,-10.923 0,-15.083 -29.099,-29.119 -29.099,-76.479 0,-105.599 z"
   inkscape:connector-curvature="0"
   style="fill:#2777e6;fill-opacity:1;stroke:#2b1100;stroke-width:3.41956973;stroke-miterlimit:4;stroke-dasharray:none;stroke-opacity:1" />

	</g>

</g>
    <g
       transform="matrix(-0.06526264,0.21797422,-0.21797422,-0.06526264,101.12087,-10.059415)"
       id="g2416"
       style="fill:#916f6f;fill-opacity:1;stroke:#2b1100;stroke-width:3.41956973;stroke-miterlimit:4;stroke-dasharray:none;stroke-opacity:1">
	<g
   id="g2414"
   style="fill:#916f6f;fill-opacity:1;stroke:#2b1100;stroke-width:3.41956973;stroke-miterlimit:4;stroke-dasharray:none;stroke-opacity:1">
		<path
   id="cs4"
   d="m 290.347,79.629 c 4.16,-4.16 4.16,-10.923 0,-15.083 -4.16,-4.16 -10.923,-4.16 -15.083,0 -54.059,54.059 -54.059,142.037 0,196.096 2.091,2.069 4.821,3.115 7.552,3.115 2.731,0 5.461,-1.045 7.531,-3.115 4.16,-4.16 4.16,-10.923 0,-15.083 -45.76,-45.738 -45.76,-120.17 0,-165.93 z"
   inkscape:connector-curvature="0"
   style="fill:#916f6f;fill-opacity:1;stroke:#2b1100;stroke-width:3.41956973;stroke-miterlimit:4;stroke-dasharray:none;stroke-opacity:1" />

	</g>

</g>
    <path
       style="opacity:1;vector-effect:none;fill:#2780de;fill-opacity:1;stroke:#2b1100;stroke-width:0.77807033;stroke-linecap:butt;stroke-linejoin:miter;stroke-miterlimit:4;stroke-dasharray:none;stroke-dashoffset:0;stroke-opacity:1;paint-order:markers fill stroke"
       d="m 44.015514,59.770172 a 2.8370967,2.6749768 0 0 1 -2.837097,2.674977 2.8370967,2.6749768 0 0 1 -2.837096,-2.674977 2.8370967,2.6749768 0 0 1 2.837096,-2.674977 2.8370967,2.6749768 0 0 1 2.837097,2.674977 z"
       id="cs1" />
  </g>
</svg>
