<?xml version="1.0" encoding="UTF-8" standalone="no"?>
<svg
   xmlns:dc="http://purl.org/dc/elements/1.1/"
   xmlns:cc="http://creativecommons.org/ns#"
   xmlns:rdf="http://www.w3.org/1999/02/22-rdf-syntax-ns#"
   xmlns:svg="http://www.w3.org/2000/svg"
   xmlns="http://www.w3.org/2000/svg"
   xmlns:sodipodi="http://sodipodi.sourceforge.net/DTD/sodipodi-0.dtd"
   xmlns:inkscape="http://www.inkscape.org/namespaces/inkscape"
   height="45.488049pt"
   viewBox="-42 0 37.577225 45.549937"
   width="37.577225pt"
   version="1.1"
   id="svg862"
   sodipodi:docname="hand.svg"
   inkscape:version="0.92.4 (5da689c313, 2019-01-14)">
  <metadata
     id="metadata868">
    <rdf:RDF>
      <cc:Work
         rdf:about="">
        <dc:format>image/svg+xml</dc:format>
        <dc:type
           rdf:resource="http://purl.org/dc/dcmitype/StillImage" />
        <dc:title></dc:title>
      </cc:Work>
    </rdf:RDF>
  </metadata>
  <defs
     id="defs866" />
  <sodipodi:namedview
     pagecolor="#ffffff"
     bordercolor="#666666"
     borderopacity="1"
     objecttolerance="10"
     gridtolerance="10"
     guidetolerance="10"
     inkscape:pageopacity="0"
     inkscape:pageshadow="2"
     inkscape:window-width="1920"
     inkscape:window-height="1016"
     id="namedview864"
     showgrid="false"
     inkscape:zoom="3.8140474"
     inkscape:cx="106.99779"
     inkscape:cy="61.353902"
     inkscape:window-x="0"
     inkscape:window-y="27"
     inkscape:window-maximized="1"
     inkscape:current-layer="svg862"
     fit-margin-top="0"
     fit-margin-left="0"
     fit-margin-right="0"
     fit-margin-bottom="0" />
  <g
     id="g875"
     transform="matrix(0.0928325,0,0,0.0928325,-42.063074,0)"
     style="stroke-width:10.772089">
    <path
       id="path852"
       d="m 363,186.66797 c -17.66406,0 -32,14.33594 -32,32 v -21.33594 c 0,-17.66406 -14.33594,-32 -32,-32 -17.66406,0 -32,14.33594 -32,32 V 176 c 0,-17.66406 -14.33594,-32 -32,-32 -17.66406,0 -32,14.33594 -32,32 V 48 C 203,30.335938 188.66406,16 171,16 153.33594,16 139,30.335938 139,48 V 288 L 59.703125,239.35937 h -0.0625 C 54.945312,236.375 49.1875,234.66797 43,234.66797 c -17.707031,0 -32,14.29297 -32,32 0,6.18359 1.707031,12.16015 4.90625,17.0664 L 15.86328,283.64847 113.91016,440 c 15.61718,24.89453 42.92578,40 72.30078,40 H 288.33203 C 347.23437,480 395,432.23437 395,373.33203 V 218.66797 c 0,-17.66406 -14.33594,-32 -32,-32 z m 0,0"
       inkscape:connector-curvature="0"
       style="fill:#ffcc80;stroke-width:91.97315216" />
    <path
       id="path854"
       d="m 133.66797,298.66797 c -8.83203,0 -16,-7.16797 -16,-16 V 48 c 0,-26.453125 21.52344,-48 48,-48 26.47265,0 48,21.546875 48,48 v 213.33203 c 0,8.83203 -7.16797,16 -16,16 -8.83203,0 -16,-7.16797 -16,-16 V 48 c 0,-8.8125 -7.16797,-16 -16,-16 -8.83203,0 -16,7.1875 -16,16 v 234.66797 c 0,8.83203 -7.16797,16 -16,16 z m 0,0"
       inkscape:connector-curvature="0"
       style="fill:#2b1100;fill-opacity:1;stroke-width:10.772089" />
    <path
       id="path856"
       d="m 261.66797,277.33203 c -8.83203,0 -16,-7.16797 -16,-16 V 176 c 0,-8.8125 -7.16797,-16 -16,-16 -8.83203,0 -16,7.1875 -16,16 0,8.83203 -7.16797,16 -16,16 -8.83203,0 -16,-7.16797 -16,-16 0,-26.45313 21.52344,-48 48,-48 26.47265,0 48,21.54687 48,48 v 85.33203 c 0,8.83203 -7.16797,16 -16,16 z m 0,0"
       inkscape:connector-curvature="0"
       style="fill:#2b1100;fill-opacity:1;stroke-width:10.772089" />
    <path
       id="path858"
       d="m 325.66797,277.33203 c -8.83203,0 -16,-7.16797 -16,-16 v -64 c 0,-8.80859 -7.16797,-16 -16,-16 -8.83203,0 -16,7.19141 -16,16 0,8.83203 -7.16797,16 -16,16 -8.83203,0 -16,-7.16797 -16,-16 0,-26.45312 21.52344,-48 48,-48 26.47265,0 48,21.54688 48,48 v 64 c 0,8.83203 -7.16797,16 -16,16 z m 0,0"
       inkscape:connector-curvature="0"
       style="fill:#2b1100;fill-opacity:1;stroke-width:10.772089" />
    <path
       id="path860"
       d="M 304.33203,490.66797 H 186.63672 c -34.87891,0 -67.92578,-18.4336 -86.25,-48.15235 L 7.90625,292.56641 c -0.019531,-0.043 -0.019531,-0.0664 -0.042969,-0.0859 -4.925781,-7.53125 -7.53125,-16.46875 -7.53125,-25.8125 0,-26.45313 21.527344,-48 48,-48 8.8125,0 17.238281,2.30078 24.46875,6.69922 0.257813,0.14844 0.515625,0.3164 0.792969,0.44531 l 68.62891,43.28516 c 7.44531,4.75781 9.68359,14.63671 4.96875,22.10156 -4.71485,7.46875 -14.61329,9.6875 -22.07813,4.99219 L 57.101562,253.26953 c -0.257812,-0.14844 -0.492187,-0.30078 -0.726562,-0.44922 -2.21875,-1.38672 -5.078125,-2.15234 -8.042969,-2.15234 -8.832031,0 -16,7.1875 -16,16 0,2.9414 0.746094,5.73828 2.070313,7.95703 0.148437,0.21094 0.277344,0.42578 0.40625,0.61719 l 92.800776,150.48437 c 12.54297,20.3125 35.15625,32.94141 59.02735,32.94141 h 117.69531 c 38.23047,0 69.33594,-31.10547 69.33594,-69.33594 V 218.66797 c 0,-8.8125 -7.16797,-16 -16,-16 -8.83203,0 -16,7.1875 -16,16 0,8.83203 -7.16797,16 -16,16 -8.83203,0 -16,-7.16797 -16,-16 0,-26.45313 21.52344,-48 48,-48 26.47265,0 48,21.54687 48,48 v 170.66406 c 0,55.875 -45.46094,101.33594 -101.33594,101.33594 z m 0,0"
       inkscape:connector-curvature="0"
       style="fill:#2b1100;fill-opacity:1;stroke-width:10.772089" />
  </g>
</svg>
